<svg width="18" height="17" viewBox="0 0 18 17" fill="none" xmlns="http://www.w3.org/2000/svg">
    <path d="M9.25376 0.463768L11.2906 4.48309C11.369 4.71498 11.604 4.86957 11.9174 4.86957L16.4611 5.48792C17.0879 5.56522 17.3229 6.33816 16.9312 6.80193L13.6409 9.97101C13.4842 10.1256 13.4058 10.4348 13.4058 10.6667L14.1892 15.0725C14.2676 15.6908 13.6409 16.1546 13.0141 15.9227L8.9404 13.8357C8.70538 13.6812 8.47035 13.6812 8.23533 13.8357L4.1616 15.9227C3.61321 16.2319 2.90814 15.7681 2.98648 15.0725L3.76989 10.6667C3.84823 10.4348 3.69155 10.1256 3.53487 9.97101L0.244546 6.87923C-0.2255 6.41546 0.0095228 5.64251 0.714592 5.56522L5.25837 4.94686C5.49339 4.94686 5.72842 4.71498 5.8851 4.56039L7.84362 0.463768C8.07865 -0.154589 8.9404 -0.154589 9.25376 0.463768Z" fill="#C4C4C4"/>
    <path fill-rule="evenodd" clip-rule="evenodd" d="M9 13.8663L8.9404 13.8357C8.70538 13.6812 8.47035 13.6812 8.23533 13.8357L4.1616 15.9227C3.61321 16.2319 2.90814 15.7681 2.98648 15.0725L3.76989 10.6667C3.84823 10.4348 3.69155 10.1256 3.53487 9.97101L0.244546 6.87923C-0.2255 6.41546 0.00952276 5.64251 0.714592 5.56522L5.25837 4.94686C5.49339 4.94686 5.72842 4.71498 5.8851 4.56039L7.84362 0.463768C8.03014 -0.0269708 8.61139 -0.128251 9 0.159927V13.8663Z" fill="#9F2739"/>
</svg>
