<svg width="17" height="16" viewBox="0 0 17 16" fill="none" xmlns="http://www.w3.org/2000/svg">
    <path d="M9.24424 0.463768L11.2811 4.48309C11.3594 4.71498 11.5945 4.86957 11.9078 4.86957L16.4516 5.48792C17.0783 5.56522 17.3134 6.33816 16.9217 6.80193L13.6313 9.97101C13.4747 10.1256 13.3963 10.4348 13.3963 10.6667L14.1797 15.0725C14.2581 15.6908 13.6313 16.1546 13.0046 15.9227L8.93088 13.8357C8.69585 13.6812 8.46083 13.6812 8.22581 13.8357L4.15208 15.9227C3.60369 16.2319 2.89862 15.7681 2.97696 15.0725L3.76037 10.6667C3.83871 10.4348 3.68203 10.1256 3.52535 9.97101L0.235024 6.87923C-0.235022 6.41546 1.28429e-06 5.64251 0.70507 5.56522L5.24885 4.94686C5.48387 4.94686 5.7189 4.71498 5.87558 4.56039L7.8341 0.463768C8.06913 -0.154589 8.93088 -0.154589 9.24424 0.463768Z" fill="#AE1E38"/>
</svg>
