<svg width="17" height="18" viewBox="0 0 17 18" fill="none" xmlns="http://www.w3.org/2000/svg">
  <path fill-rule="evenodd" clip-rule="evenodd" d="M3.08347 2.0459H13.5696C13.8297 2.0459 14.0463 2.24523 14.0679 2.50438L15.1512 15.5044C15.1755 15.7959 14.9455 16.0459 14.6529 16.0459H2.00014C1.70762 16.0459 1.47757 15.7959 1.50187 15.5044L2.5852 2.50438C2.60679 2.24523 2.82343 2.0459 3.08347 2.0459ZM1.09038 2.37981C1.17676 1.34322 2.04329 0.545898 3.08347 0.545898H13.5696C14.6098 0.545898 15.4763 1.34322 15.5627 2.37981L16.646 15.3798C16.7432 16.5458 15.823 17.5459 14.6529 17.5459H2.00014C0.830058 17.5459 -0.0901232 16.5458 0.00704665 15.3798L1.09038 2.37981ZM6.24286 4.08754C6.24286 3.67333 5.90708 3.33754 5.49286 3.33754C5.07865 3.33754 4.74286 3.67333 4.74286 4.08754C4.74286 5.16068 4.98177 6.10411 5.6457 6.76804C6.30962 7.43197 7.25306 7.67087 8.32619 7.67087C9.39933 7.67087 10.3428 7.43197 11.0067 6.76804C11.6706 6.10411 11.9095 5.16068 11.9095 4.08754C11.9095 3.67333 11.5737 3.33754 11.1595 3.33754C10.7453 3.33754 10.4095 3.67333 10.4095 4.08754C10.4095 4.97041 10.2098 5.44364 9.94604 5.70738C9.6823 5.97112 9.20906 6.17087 8.32619 6.17087C7.44333 6.17087 6.97009 5.97112 6.70636 5.70738C6.44262 5.44364 6.24286 4.97041 6.24286 4.08754Z" fill="#ffffff"/>
</svg>
